<svg width="177" height="63" viewBox="0 0 177 63" fill="none" xmlns="http://www.w3.org/2000/svg">
<path d="M16.11 7.71C18.23 7.71 20.16 8.06 21.9 8.76C23.64 9.46 25.06 10.56 26.16 12.06C27.26 13.54 27.81 15.31 27.81 17.37C27.81 20.41 26.68 22.78 24.42 24.48C22.18 26.16 19.41 27 16.11 27H1.08V7.71H16.11ZM16.11 23.55C18.51 23.53 20.32 22.95 21.54 21.81C22.76 20.65 23.37 19.17 23.37 17.37C23.37 13.23 20.95 11.16 16.11 11.16H5.55V23.55H16.11ZM28.9284 27L40.8384 7.71H45.9084L57.6984 27H52.9884L51.0084 23.76H35.6184L33.6384 27H28.9284ZM48.9084 20.31L43.3584 11.19L37.7484 20.31H48.9084ZM61.8359 7.71H66.9359L83.7659 23.22V7.71H88.2359V27H83.0159L66.3059 11.76V27H61.8359V7.71ZM92.9503 17.37C92.9503 14.35 94.2303 11.94 96.7903 10.14C99.3503 8.32 102.66 7.41 106.72 7.41C108.28 7.41 109.72 7.53 111.04 7.77C112.36 8.01 113.45 8.32 114.31 8.7C115.19 9.06 115.97 9.49 116.65 9.99C117.35 10.47 117.89 10.94 118.27 11.4C118.65 11.84 118.97 12.29 119.23 12.75C119.51 13.19 119.69 13.52 119.77 13.74C119.85 13.96 119.9 14.12 119.92 14.22V14.25H115.21C115.17 14.17 115.1 14.06 115 13.92C114.92 13.76 114.67 13.49 114.25 13.11C113.83 12.73 113.33 12.4 112.75 12.12C112.19 11.82 111.37 11.55 110.29 11.31C109.21 11.07 108.01 10.95 106.69 10.95C104.05 10.95 101.87 11.53 100.15 12.69C98.4503 13.83 97.6003 15.39 97.6003 17.37C97.6003 19.31 98.4603 20.86 100.18 22.02C101.9 23.18 104.08 23.76 106.72 23.76C109.22 23.76 111.11 23.4 112.39 22.68C113.69 21.94 114.56 21.1 115 20.16H105.43V16.71H119.92C119.94 16.83 119.95 17.02 119.95 17.28C119.95 17.52 119.92 17.87 119.86 18.33C119.82 18.79 119.73 19.27 119.59 19.77C119.47 20.27 119.26 20.82 118.96 21.42C118.68 22 118.33 22.57 117.91 23.13C117.49 23.67 116.94 24.2 116.26 24.72C115.58 25.22 114.8 25.66 113.92 26.04C113.06 26.42 112.01 26.73 110.77 26.97C109.53 27.19 108.18 27.3 106.72 27.3C102.46 27.3 99.1003 26.42 96.6403 24.66C94.1803 22.88 92.9503 20.45 92.9503 17.37ZM124.613 7.71H147.203V11.16H129.083V15.6H146.003V19.05H129.083V23.55H147.503V27H124.613V7.71ZM166.468 7.71C169.628 7.71 171.998 8.26 173.578 9.36C175.158 10.46 175.948 12.01 175.948 14.01C175.948 16.39 174.828 18.17 172.588 19.35C173.508 19.45 174.158 19.73 174.538 20.19C174.938 20.63 175.138 21.43 175.138 22.59V27H170.698L170.668 22.59C170.668 21.95 170.508 21.47 170.188 21.15C169.868 20.81 169.298 20.64 168.478 20.64H156.868V27H152.398V7.71H166.468ZM156.868 17.19H166.468C168.128 17.19 169.388 16.91 170.248 16.35C171.128 15.77 171.568 14.99 171.568 14.01C171.568 12.11 169.868 11.16 166.468 11.16H156.868V17.19Z" fill="#4A4A57"/>
<path d="M21.9 8.76L22.0866 8.29613L22.0866 8.29613L21.9 8.76ZM26.16 12.06L25.7568 12.3557L25.7587 12.3583L26.16 12.06ZM24.42 24.48L24.72 24.88L24.7206 24.8796L24.42 24.48ZM1.08 27H0.58V27.5H1.08V27ZM1.08 7.71V7.21H0.58V7.71H1.08ZM16.11 23.55L16.11 24.05L16.1142 24.05L16.11 23.55ZM21.54 21.81L21.8814 22.1753L21.8845 22.1724L21.54 21.81ZM5.55 11.16V10.66H5.05V11.16H5.55ZM5.55 23.55H5.05V24.05H5.55V23.55ZM16.11 8.21C18.1743 8.21 20.0399 8.55064 21.7134 9.22387L22.0866 8.29613C20.2801 7.56935 18.2857 7.21 16.11 7.21V8.21ZM21.7134 9.22387C23.3677 9.88939 24.7124 10.9315 25.7568 12.3557L26.5632 11.7643C25.4076 10.1885 23.9123 9.03061 22.0866 8.29613L21.7134 9.22387ZM25.7587 12.3583C26.7872 13.742 27.31 15.4042 27.31 17.37H28.31C28.31 15.2158 27.7328 13.338 26.5613 11.7617L25.7587 12.3583ZM27.31 17.37C27.31 20.2665 26.2433 22.4828 24.1194 24.0804L24.7206 24.8796C27.1167 23.0772 28.31 20.5535 28.31 17.37H27.31ZM24.12 24.08C21.9813 25.684 19.3218 26.5 16.11 26.5V27.5C19.4982 27.5 22.3787 26.636 24.72 24.88L24.12 24.08ZM16.11 26.5H1.08V27.5H16.11V26.5ZM1.58 27V7.71H0.58V27H1.58ZM1.08 8.21H16.11V7.21H1.08V8.21ZM16.1142 24.05C18.5851 24.0294 20.5366 23.4319 21.8814 22.1753L21.1986 21.4447C20.1034 22.4681 18.4349 23.0306 16.1058 23.05L16.1142 24.05ZM21.8845 22.1724C23.2112 20.9109 23.87 19.2964 23.87 17.37H22.87C22.87 19.0436 22.3088 20.3891 21.1955 21.4476L21.8845 22.1724ZM23.87 17.37C23.87 15.2007 23.2323 13.4893 21.88 12.3325C20.5426 11.1886 18.5896 10.66 16.11 10.66V11.66C18.4704 11.66 20.1474 12.1664 21.23 13.0925C22.2977 14.0057 22.87 15.3993 22.87 17.37H23.87ZM16.11 10.66H5.55V11.66H16.11V10.66ZM5.05 11.16V23.55H6.05V11.16H5.05ZM5.55 24.05H16.11V23.05H5.55V24.05ZM28.9284 27L28.503 26.7373L28.0321 27.5H28.9284V27ZM40.8384 7.71V7.21H40.5595L40.413 7.44732L40.8384 7.71ZM45.9084 7.71L46.3351 7.44925L46.1888 7.21H45.9084V7.71ZM57.6984 27V27.5H58.59L58.1251 26.7392L57.6984 27ZM52.9884 27L52.5618 27.2607L52.708 27.5H52.9884V27ZM51.0084 23.76L51.4351 23.4993L51.2889 23.26H51.0084V23.76ZM35.6184 23.76V23.26H35.338L35.1918 23.4993L35.6184 23.76ZM33.6384 27V27.5H33.9189L34.0651 27.2607L33.6384 27ZM48.9084 20.31V20.81H49.798L49.3356 20.0501L48.9084 20.31ZM43.3584 11.19L43.7856 10.9301L43.3607 10.232L42.9326 10.928L43.3584 11.19ZM37.7484 20.31L37.3226 20.048L36.8538 20.81H37.7484V20.31ZM29.3539 27.2627L41.2639 7.97268L40.413 7.44732L28.503 26.7373L29.3539 27.2627ZM40.8384 8.21H45.9084V7.21H40.8384V8.21ZM45.4818 7.97075L57.2718 27.2608L58.1251 26.7392L46.3351 7.44925L45.4818 7.97075ZM57.6984 26.5H52.9884V27.5H57.6984V26.5ZM53.4151 26.7393L51.4351 23.4993L50.5818 24.0207L52.5618 27.2607L53.4151 26.7393ZM51.0084 23.26H35.6184V24.26H51.0084V23.26ZM35.1918 23.4993L33.2118 26.7393L34.0651 27.2607L36.0451 24.0207L35.1918 23.4993ZM33.6384 26.5H28.9284V27.5H33.6384V26.5ZM49.3356 20.0501L43.7856 10.9301L42.9313 11.4499L48.4813 20.5699L49.3356 20.0501ZM42.9326 10.928L37.3226 20.048L38.1743 20.572L43.7843 11.452L42.9326 10.928ZM37.7484 20.81H48.9084V19.81H37.7484V20.81ZM61.8359 7.71V7.21H61.3359V7.71H61.8359ZM66.9359 7.71L67.2747 7.34232L67.1311 7.21H66.9359V7.71ZM83.7659 23.22L83.427 23.5877L84.2659 24.3607V23.22H83.7659ZM83.7659 7.71V7.21H83.2659V7.71H83.7659ZM88.2359 7.71H88.7359V7.21H88.2359V7.71ZM88.2359 27V27.5H88.7359V27H88.2359ZM83.0159 27L82.6789 27.3694L82.8221 27.5H83.0159V27ZM66.3059 11.76L66.6428 11.3906L65.8059 10.6273V11.76H66.3059ZM66.3059 27V27.5H66.8059V27H66.3059ZM61.8359 27H61.3359V27.5H61.8359V27ZM61.8359 8.21H66.9359V7.21H61.8359V8.21ZM66.597 8.07768L83.427 23.5877L84.1047 22.8523L67.2747 7.34232L66.597 8.07768ZM84.2659 23.22V7.71H83.2659V23.22H84.2659ZM83.7659 8.21H88.2359V7.21H83.7659V8.21ZM87.7359 7.71V27H88.7359V7.71H87.7359ZM88.2359 26.5H83.0159V27.5H88.2359V26.5ZM83.3528 26.6306L66.6428 11.3906L65.9689 12.1294L82.6789 27.3694L83.3528 26.6306ZM65.8059 11.76V27H66.8059V11.76H65.8059ZM66.3059 26.5H61.8359V27.5H66.3059V26.5ZM62.3359 27V7.71H61.3359V27H62.3359ZM96.7903 10.14L97.0779 10.549L97.08 10.5475L96.7903 10.14ZM111.04 7.77L110.951 8.26193L110.951 8.26193L111.04 7.77ZM114.31 8.7L114.108 9.15752L114.121 9.16277L114.31 8.7ZM116.65 9.99L116.354 10.3928L116.361 10.3977L116.368 10.4024L116.65 9.99ZM118.27 11.4L117.885 11.7185L117.892 11.7268L118.27 11.4ZM119.23 12.75L118.795 12.996L118.801 13.0074L118.808 13.0184L119.23 12.75ZM119.77 13.74L119.3 13.9109L119.3 13.9109L119.77 13.74ZM119.92 14.22H120.42V14.1705L120.411 14.1219L119.92 14.22ZM119.92 14.25V14.75H120.42V14.25H119.92ZM115.21 14.25L114.763 14.4736L114.901 14.75H115.21V14.25ZM115 13.92L114.553 14.1436L114.571 14.1787L114.593 14.2106L115 13.92ZM114.25 13.11L113.915 13.4808L113.915 13.4808L114.25 13.11ZM112.75 12.12L112.514 12.5607L112.523 12.5657L112.533 12.5703L112.75 12.12ZM110.29 11.31L110.182 11.7981L110.182 11.7981L110.29 11.31ZM100.15 12.69L100.429 13.1053L100.43 13.1045L100.15 12.69ZM100.18 22.02L100.46 21.6055L100.46 21.6055L100.18 22.02ZM112.39 22.68L112.635 23.1158L112.638 23.1145L112.39 22.68ZM115 20.16L115.453 20.372L115.786 19.66H115V20.16ZM105.43 20.16H104.93V20.66H105.43V20.16ZM105.43 16.71V16.21H104.93V16.71H105.43ZM119.92 16.71L120.414 16.6278L120.344 16.21H119.92V16.71ZM119.86 18.33L119.365 18.2653L119.363 18.276L119.362 18.2867L119.86 18.33ZM119.59 19.77L119.109 19.6352L119.106 19.6442L119.104 19.6533L119.59 19.77ZM118.96 21.42L118.513 21.1964L118.51 21.2026L118.96 21.42ZM117.91 23.13L118.305 23.437L118.31 23.43L117.91 23.13ZM116.26 24.72L116.557 25.1229L116.564 25.1172L116.26 24.72ZM113.92 26.04L113.722 25.581L113.718 25.5827L113.92 26.04ZM110.77 26.97L110.858 27.4624L110.865 27.4609L110.77 26.97ZM96.6403 24.66L96.3472 25.0651L96.3494 25.0666L96.6403 24.66ZM93.4503 17.37C93.4503 14.5197 94.6453 12.2594 97.0779 10.549L96.5027 9.73098C93.8153 11.6206 92.4503 14.1803 92.4503 17.37H93.4503ZM97.08 10.5475C99.5337 8.80313 102.734 7.91 106.72 7.91V6.91C102.587 6.91 99.167 7.83687 96.5006 9.73249L97.08 10.5475ZM106.72 7.91C108.255 7.91 109.665 8.02808 110.951 8.26193L111.13 7.27806C109.776 7.03192 108.306 6.91 106.72 6.91V7.91ZM110.951 8.26193C112.247 8.49761 113.296 8.79844 114.108 9.15734L114.512 8.24266C113.605 7.84156 112.474 7.52239 111.13 7.27806L110.951 8.26193ZM114.121 9.16277C114.968 9.50917 115.711 9.91995 116.354 10.3928L116.947 9.58717C116.23 9.06005 115.413 8.61083 114.5 8.23723L114.121 9.16277ZM116.368 10.4024C117.044 10.8661 117.544 11.306 117.885 11.7184L118.656 11.0816C118.237 10.574 117.657 10.0739 116.933 9.57763L116.368 10.4024ZM117.892 11.7268C118.252 12.1443 118.553 12.5675 118.795 12.996L119.666 12.504C119.388 12.0125 119.048 11.5357 118.649 11.0732L117.892 11.7268ZM118.808 13.0184C119.087 13.4558 119.241 13.7463 119.3 13.9109L120.24 13.5691C120.14 13.2937 119.934 12.9242 119.652 12.4816L118.808 13.0184ZM119.3 13.9109C119.38 14.1296 119.418 14.2585 119.43 14.3181L120.411 14.1219C120.383 13.9815 120.321 13.7904 120.24 13.5691L119.3 13.9109ZM119.42 14.22V14.25H120.42V14.22H119.42ZM119.92 13.75H115.21V14.75H119.92V13.75ZM115.658 14.0264C115.6 13.9106 115.511 13.775 115.407 13.6294L114.593 14.2106C114.689 14.345 114.741 14.4294 114.763 14.4736L115.658 14.0264ZM115.448 13.6964C115.374 13.5496 115.25 13.399 115.12 13.2578C114.981 13.1079 114.802 12.9345 114.586 12.7392L113.915 13.4808C114.119 13.6655 114.275 13.8171 114.386 13.9372C114.441 13.9971 114.483 14.0457 114.512 14.0838C114.526 14.1026 114.537 14.1174 114.544 14.1283C114.551 14.1395 114.553 14.1444 114.553 14.1436L115.448 13.6964ZM114.586 12.7392C114.126 12.3232 113.585 11.9677 112.968 11.6697L112.533 12.5703C113.076 12.8323 113.535 13.1368 113.915 13.4808L114.586 12.7392ZM112.986 11.6793C112.367 11.3475 111.496 11.0656 110.399 10.8219L110.182 11.7981C111.245 12.0344 112.013 12.2925 112.514 12.5607L112.986 11.6793ZM110.399 10.8219C109.277 10.5726 108.04 10.45 106.69 10.45V11.45C107.981 11.45 109.144 11.5674 110.182 11.7981L110.399 10.8219ZM106.69 10.45C103.978 10.45 101.693 11.0463 99.8707 12.2755L100.43 13.1045C102.047 12.0137 104.123 11.45 106.69 11.45V10.45ZM99.8718 12.2747C98.039 13.5038 97.1003 15.2167 97.1003 17.37H98.1003C98.1003 15.5633 98.8616 14.1562 100.429 13.1053L99.8718 12.2747ZM97.1003 17.37C97.1003 19.4895 98.0543 21.1892 99.9007 22.4345L100.46 21.6055C98.8664 20.5308 98.1003 19.1305 98.1003 17.37H97.1003ZM99.9007 22.4345C101.723 23.6637 104.008 24.26 106.72 24.26V23.26C104.153 23.26 102.077 22.6963 100.46 21.6055L99.9007 22.4345ZM106.72 24.26C109.253 24.26 111.245 23.8979 112.635 23.1158L112.145 22.2442C110.976 22.9021 109.187 23.26 106.72 23.26V24.26ZM112.638 23.1145C113.99 22.345 114.954 21.4387 115.453 20.372L114.547 19.948C114.167 20.7613 113.391 21.535 112.143 22.2455L112.638 23.1145ZM115 19.66H105.43V20.66H115V19.66ZM105.93 20.16V16.71H104.93V20.16H105.93ZM105.43 17.21H119.92V16.21H105.43V17.21ZM119.427 16.7922C119.44 16.8688 119.45 17.0238 119.45 17.28H120.45C120.45 17.0162 120.441 16.7912 120.414 16.6278L119.427 16.7922ZM119.45 17.28C119.45 17.4868 119.424 17.8109 119.365 18.2653L120.356 18.3947C120.417 17.9291 120.45 17.5532 120.45 17.28H119.45ZM119.362 18.2867C119.325 18.7122 119.241 19.1615 119.109 19.6352L120.072 19.9048C120.219 19.3785 120.315 18.8678 120.358 18.3733L119.362 18.2867ZM119.104 19.6533C118.995 20.1071 118.801 20.6207 118.513 21.1964L119.408 21.6436C119.72 21.0193 119.945 20.4329 120.077 19.8867L119.104 19.6533ZM118.51 21.2026C118.245 21.7511 117.913 22.2936 117.51 22.83L118.31 23.43C118.748 22.8464 119.115 22.2489 119.411 21.6374L118.51 21.2026ZM117.516 22.823C117.128 23.322 116.611 23.8227 115.957 24.3228L116.564 25.1172C117.27 24.5773 117.853 24.018 118.305 23.437L117.516 22.823ZM115.964 24.3172C115.318 24.792 114.572 25.214 113.722 25.581L114.119 26.499C115.029 26.106 115.842 25.648 116.557 25.1228L115.964 24.3172ZM113.718 25.5827C112.902 25.9433 111.89 26.244 110.675 26.4791L110.865 27.4609C112.13 27.216 113.219 26.8967 114.122 26.4973L113.718 25.5827ZM110.683 26.4777C109.476 26.6918 108.156 26.8 106.72 26.8V27.8C108.205 27.8 109.585 27.6882 110.858 27.4623L110.683 26.4777ZM106.72 26.8C102.523 26.8 99.2781 25.9324 96.9312 24.2534L96.3494 25.0666C98.9226 26.9076 102.397 27.8 106.72 27.8V26.8ZM96.9334 24.2549C94.6056 22.5705 93.4503 20.2923 93.4503 17.37H92.4503C92.4503 20.6077 93.7551 23.1895 96.3472 25.0651L96.9334 24.2549ZM124.613 7.71V7.21H124.113V7.71H124.613ZM147.203 7.71H147.703V7.21H147.203V7.71ZM147.203 11.16V11.66H147.703V11.16H147.203ZM129.083 11.16V10.66H128.583V11.16H129.083ZM129.083 15.6H128.583V16.1H129.083V15.6ZM146.003 15.6H146.503V15.1H146.003V15.6ZM146.003 19.05V19.55H146.503V19.05H146.003ZM129.083 19.05V18.55H128.583V19.05H129.083ZM129.083 23.55H128.583V24.05H129.083V23.55ZM147.503 23.55H148.003V23.05H147.503V23.55ZM147.503 27V27.5H148.003V27H147.503ZM124.613 27H124.113V27.5H124.613V27ZM124.613 8.21H147.203V7.21H124.613V8.21ZM146.703 7.71V11.16H147.703V7.71H146.703ZM147.203 10.66H129.083V11.66H147.203V10.66ZM128.583 11.16V15.6H129.583V11.16H128.583ZM129.083 16.1H146.003V15.1H129.083V16.1ZM145.503 15.6V19.05H146.503V15.6H145.503ZM146.003 18.55H129.083V19.55H146.003V18.55ZM128.583 19.05V23.55H129.583V19.05H128.583ZM129.083 24.05H147.503V23.05H129.083V24.05ZM147.003 23.55V27H148.003V23.55H147.003ZM147.503 26.5H124.613V27.5H147.503V26.5ZM125.113 27V7.71H124.113V27H125.113ZM173.578 9.36L173.293 9.77035L173.293 9.77035L173.578 9.36ZM172.588 19.35L172.355 18.9076L170.908 19.6703L172.534 19.8471L172.588 19.35ZM174.538 20.19L174.153 20.5084L174.16 20.5176L174.168 20.5263L174.538 20.19ZM175.138 27V27.5H175.638V27H175.138ZM170.698 27L170.198 27.0034L170.202 27.5H170.698V27ZM170.668 22.59H170.168L170.168 22.5934L170.668 22.59ZM170.188 21.15L169.824 21.4927L169.829 21.4982L169.835 21.5036L170.188 21.15ZM156.868 20.64V20.14H156.368V20.64H156.868ZM156.868 27V27.5H157.368V27H156.868ZM152.398 27H151.898V27.5H152.398V27ZM152.398 7.71V7.21H151.898V7.71H152.398ZM156.868 17.19H156.368V17.69H156.868V17.19ZM170.248 16.35L170.521 16.769L170.524 16.7675L170.248 16.35ZM156.868 11.16V10.66H156.368V11.16H156.868ZM166.468 8.21C169.586 8.21 171.835 8.75537 173.293 9.77035L173.864 8.94965C172.162 7.76463 169.671 7.21 166.468 7.21V8.21ZM173.293 9.77035C174.732 10.7726 175.448 12.1661 175.448 14.01H176.448C176.448 11.8539 175.584 10.1474 173.864 8.94965L173.293 9.77035ZM175.448 14.01C175.448 15.1185 175.189 16.0636 174.685 16.8637C174.181 17.6655 173.413 18.3502 172.355 18.9076L172.821 19.7924C174.003 19.1698 174.916 18.3745 175.532 17.3963C176.148 16.4164 176.448 15.2815 176.448 14.01H175.448ZM172.534 19.8471C173.394 19.9405 173.892 20.1922 174.153 20.5084L174.924 19.8716C174.425 19.2678 173.623 18.9595 172.642 18.8529L172.534 19.8471ZM174.168 20.5263C174.435 20.8194 174.638 21.4519 174.638 22.59H175.638C175.638 21.4081 175.442 20.4406 174.908 19.8537L174.168 20.5263ZM174.638 22.59V27H175.638V22.59H174.638ZM175.138 26.5H170.698V27.5H175.138V26.5ZM171.198 26.9966L171.168 22.5866L170.168 22.5934L170.198 27.0034L171.198 26.9966ZM171.168 22.59C171.168 21.8729 170.989 21.2433 170.542 20.7964L169.835 21.5036C170.028 21.6967 170.168 22.0271 170.168 22.59H171.168ZM170.552 20.8073C170.087 20.3132 169.339 20.14 168.478 20.14V21.14C169.258 21.14 169.649 21.3068 169.824 21.4927L170.552 20.8073ZM168.478 20.14H156.868V21.14H168.478V20.14ZM156.368 20.64V27H157.368V20.64H156.368ZM156.868 26.5H152.398V27.5H156.868V26.5ZM152.898 27V7.71H151.898V27H152.898ZM152.398 8.21H166.468V7.21H152.398V8.21ZM156.868 17.69H166.468V16.69H156.868V17.69ZM166.468 17.69C168.171 17.69 169.544 17.4052 170.521 16.769L169.976 15.931C169.233 16.4147 168.086 16.69 166.468 16.69V17.69ZM170.524 16.7675C171.531 16.1033 172.068 15.1727 172.068 14.01H171.068C171.068 14.8073 170.725 15.4367 169.973 15.9325L170.524 16.7675ZM172.068 14.01C172.068 13.4581 171.944 12.9514 171.679 12.507C171.414 12.0632 171.025 11.7088 170.537 11.436C169.576 10.8989 168.199 10.66 166.468 10.66V11.66C168.138 11.66 169.311 11.8961 170.049 12.309C170.411 12.5112 170.66 12.7505 170.82 13.0193C170.98 13.2874 171.068 13.6119 171.068 14.01H172.068ZM166.468 10.66H156.868V11.66H166.468V10.66ZM156.368 11.16V17.19H157.368V11.16H156.368Z" fill="#4A4A57"/>
<path d="M7.56 50.55H26.91V54H0.99V50.55L20.22 38.16H1.38V34.71H26.82V37.92L7.56 50.55ZM30.2023 44.37C30.2023 41.43 31.4723 39.04 34.0123 37.2C36.5723 35.34 39.8823 34.41 43.9423 34.41C47.9823 34.41 51.2723 35.34 53.8123 37.2C56.3723 39.04 57.6523 41.43 57.6523 44.37C57.6523 47.29 56.3723 49.68 53.8123 51.54C51.2723 53.38 47.9823 54.3 43.9423 54.3C39.9023 54.3 36.6023 53.38 34.0423 51.54C31.4823 49.68 30.2023 47.29 30.2023 44.37ZM34.8223 44.37C34.8223 46.29 35.6623 47.84 37.3423 49.02C39.0223 50.18 41.2223 50.76 43.9423 50.76C46.7023 50.76 48.9123 50.18 50.5723 49.02C52.2123 47.86 53.0323 46.31 53.0323 44.37C53.0323 42.43 52.2023 40.88 50.5423 39.72C48.9023 38.54 46.7023 37.95 43.9423 37.95C41.2223 37.95 39.0223 38.54 37.3423 39.72C35.6623 40.9 34.8223 42.45 34.8223 44.37ZM62.3632 34.71H67.4632L84.2932 50.22V34.71H88.7632V54H83.5432L66.8332 38.76V54H62.3632V34.71ZM93.9277 34.71H116.518V38.16H98.3977V42.6H115.318V46.05H98.3977V50.55H116.818V54H93.9277V34.71Z" fill="#DA0037"/>
<path d="M7.56 50.55L7.28581 50.1319L5.88574 51.05H7.56V50.55ZM26.91 50.55H27.41V50.05H26.91V50.55ZM26.91 54V54.5H27.41V54H26.91ZM0.99 54H0.49V54.5H0.99V54ZM0.99 50.55L0.719191 50.1297L0.49 50.2774V50.55H0.99ZM20.22 38.16L20.4908 38.5803L21.9192 37.66H20.22V38.16ZM1.38 38.16H0.88V38.66H1.38V38.16ZM1.38 34.71V34.21H0.88V34.71H1.38ZM26.82 34.71H27.32V34.21H26.82V34.71ZM26.82 37.92L27.0942 38.3381L27.32 38.19V37.92H26.82ZM7.56 51.05H26.91V50.05H7.56V51.05ZM26.41 50.55V54H27.41V50.55H26.41ZM26.91 53.5H0.99V54.5H26.91V53.5ZM1.49 54V50.55H0.49V54H1.49ZM1.26081 50.9703L20.4908 38.5803L19.9492 37.7397L0.719191 50.1297L1.26081 50.9703ZM20.22 37.66H1.38V38.66H20.22V37.66ZM1.88 38.16V34.71H0.88V38.16H1.88ZM1.38 35.21H26.82V34.21H1.38V35.21ZM26.32 34.71V37.92H27.32V34.71H26.32ZM26.5458 37.5019L7.28581 50.1319L7.83419 50.9681L27.0942 38.3381L26.5458 37.5019ZM34.0123 37.2L34.3056 37.6049L34.3062 37.6045L34.0123 37.2ZM53.8123 37.2L53.5168 37.6034L53.5204 37.606L53.8123 37.2ZM53.8123 51.54L54.1056 51.9449L54.1062 51.9445L53.8123 51.54ZM34.0423 51.54L33.7484 51.9445L33.7504 51.946L34.0423 51.54ZM37.3423 49.02L37.0549 49.4292L37.0582 49.4314L37.3423 49.02ZM50.5723 49.02L50.8587 49.4299L50.861 49.4282L50.5723 49.02ZM50.5423 39.72L50.2502 40.1259L50.2559 40.1298L50.5423 39.72ZM37.3423 39.72L37.6297 40.1292L37.6297 40.1292L37.3423 39.72ZM30.7023 44.37C30.7023 41.6024 31.8852 39.3582 34.3056 37.6049L33.7189 36.7951C31.0593 38.7218 29.7023 41.2576 29.7023 44.37H30.7023ZM34.3062 37.6045C36.7593 35.8221 39.9579 34.91 43.9423 34.91V33.91C39.8066 33.91 36.3852 34.8579 33.7184 36.7955L34.3062 37.6045ZM43.9423 34.91C47.9062 34.91 51.0841 35.8219 53.5169 37.6034L54.1077 36.7966C51.4605 34.8581 48.0583 33.91 43.9423 33.91V34.91ZM53.5204 37.606C55.9608 39.36 57.1523 41.6041 57.1523 44.37H58.1523C58.1523 41.2559 56.7837 38.72 54.1041 36.794L53.5204 37.606ZM57.1523 44.37C57.1523 47.1149 55.9615 49.3604 53.5184 51.1355L54.1062 51.9445C56.783 49.9996 58.1523 47.4651 58.1523 44.37H57.1523ZM53.5189 51.1351C51.0859 52.8976 47.9073 53.8 43.9423 53.8V54.8C48.0572 54.8 51.4586 53.8624 54.1056 51.9449L53.5189 51.1351ZM43.9423 53.8C39.9775 53.8 36.7879 52.8976 34.3341 51.134L33.7504 51.946C36.4167 53.8624 39.8271 54.8 43.9423 54.8V53.8ZM34.3362 51.1355C31.893 49.3604 30.7023 47.1149 30.7023 44.37H29.7023C29.7023 47.4651 31.0715 49.9996 33.7484 51.9445L34.3362 51.1355ZM34.3223 44.37C34.3223 46.4657 35.2525 48.1632 37.0549 49.4292L37.6297 48.6108C36.0721 47.5168 35.3223 46.1143 35.3223 44.37H34.3223ZM37.0582 49.4314C38.8454 50.6655 41.154 51.26 43.9423 51.26V50.26C41.2906 50.26 39.1992 49.6945 37.6264 48.6086L37.0582 49.4314ZM43.9423 51.26C46.7684 51.26 49.0892 50.6664 50.8587 49.4298L50.2859 48.6102C48.7354 49.6936 46.6362 50.26 43.9423 50.26V51.26ZM50.861 49.4282C52.6279 48.1784 53.5323 46.479 53.5323 44.37H52.5323C52.5323 46.141 51.7966 47.5416 50.2835 48.6118L50.861 49.4282ZM53.5323 44.37C53.5323 42.2584 52.6156 40.5588 50.8287 39.3102L50.2559 40.1298C51.789 41.2012 52.5323 42.6016 52.5323 44.37H53.5323ZM50.8343 39.3141C49.0831 38.0541 46.7695 37.45 43.9423 37.45V38.45C46.6351 38.45 48.7214 39.0259 50.2502 40.1259L50.8343 39.3141ZM43.9423 37.45C41.1524 37.45 38.8425 38.0552 37.0549 39.3108L37.6297 40.1292C39.202 39.0248 41.2921 38.45 43.9423 38.45V37.45ZM37.0549 39.3108C35.2525 40.5768 34.3223 42.2743 34.3223 44.37H35.3223C35.3223 42.6257 36.0721 41.2232 37.6297 40.1292L37.0549 39.3108ZM62.3632 34.71V34.21H61.8632V34.71H62.3632ZM67.4632 34.71L67.802 34.3423L67.6585 34.21H67.4632V34.71ZM84.2932 50.22L83.9544 50.5877L84.7932 51.3607V50.22H84.2932ZM84.2932 34.71V34.21H83.7932V34.71H84.2932ZM88.7632 34.71H89.2632V34.21H88.7632V34.71ZM88.7632 54V54.5H89.2632V54H88.7632ZM83.5432 54L83.2063 54.3694L83.3494 54.5H83.5432V54ZM66.8332 38.76L67.1701 38.3906L66.3332 37.6273V38.76H66.8332ZM66.8332 54V54.5H67.3332V54H66.8332ZM62.3632 54H61.8632V54.5H62.3632V54ZM62.3632 35.21H67.4632V34.21H62.3632V35.21ZM67.1244 35.0777L83.9544 50.5877L84.632 49.8523L67.802 34.3423L67.1244 35.0777ZM84.7932 50.22V34.71H83.7932V50.22H84.7932ZM84.2932 35.21H88.7632V34.21H84.2932V35.21ZM88.2632 34.71V54H89.2632V34.71H88.2632ZM88.7632 53.5H83.5432V54.5H88.7632V53.5ZM83.8801 53.6306L67.1701 38.3906L66.4963 39.1294L83.2063 54.3694L83.8801 53.6306ZM66.3332 38.76V54H67.3332V38.76H66.3332ZM66.8332 53.5H62.3632V54.5H66.8332V53.5ZM62.8632 54V34.71H61.8632V54H62.8632ZM93.9277 34.71V34.21H93.4277V34.71H93.9277ZM116.518 34.71H117.018V34.21H116.518V34.71ZM116.518 38.16V38.66H117.018V38.16H116.518ZM98.3977 38.16V37.66H97.8977V38.16H98.3977ZM98.3977 42.6H97.8977V43.1H98.3977V42.6ZM115.318 42.6H115.818V42.1H115.318V42.6ZM115.318 46.05V46.55H115.818V46.05H115.318ZM98.3977 46.05V45.55H97.8977V46.05H98.3977ZM98.3977 50.55H97.8977V51.05H98.3977V50.55ZM116.818 50.55H117.318V50.05H116.818V50.55ZM116.818 54V54.5H117.318V54H116.818ZM93.9277 54H93.4277V54.5H93.9277V54ZM93.9277 35.21H116.518V34.21H93.9277V35.21ZM116.018 34.71V38.16H117.018V34.71H116.018ZM116.518 37.66H98.3977V38.66H116.518V37.66ZM97.8977 38.16V42.6H98.8977V38.16H97.8977ZM98.3977 43.1H115.318V42.1H98.3977V43.1ZM114.818 42.6V46.05H115.818V42.6H114.818ZM115.318 45.55H98.3977V46.55H115.318V45.55ZM97.8977 46.05V50.55H98.8977V46.05H97.8977ZM98.3977 51.05H116.818V50.05H98.3977V51.05ZM116.318 50.55V54H117.318V50.55H116.318ZM116.818 53.5H93.9277V54.5H116.818V53.5ZM94.4277 54V34.71H93.4277V54H94.4277Z" fill="#DA0037"/>
</svg>
