<svg width="41" height="24" viewBox="0 0 41 24" fill="none" xmlns="http://www.w3.org/2000/svg">
<path d="M10.74 5.14C12.1533 5.14 13.44 5.37333 14.6 5.84C15.76 6.30667 16.7067 7.04 17.44 8.04C18.1733 9.02667 18.54 10.2067 18.54 11.58C18.54 13.6067 17.7867 15.1867 16.28 16.32C14.7867 17.44 12.94 18 10.74 18H0.72V5.14H10.74ZM10.74 15.7C12.34 15.6867 13.5467 15.3 14.36 14.54C15.1733 13.7667 15.58 12.78 15.58 11.58C15.58 8.82 13.9667 7.44 10.74 7.44H3.7V15.7H10.74Z" fill="#4A4A57"/>
<path d="M14.6 5.84L14.7866 5.37613L14.7866 5.37613L14.6 5.84ZM17.44 8.04L17.0368 8.33569L17.0387 8.33826L17.44 8.04ZM16.28 16.32L16.58 16.72L16.5806 16.7196L16.28 16.32ZM0.72 18H0.22V18.5H0.72V18ZM0.72 5.14V4.64H0.22V5.14H0.72ZM10.74 15.7L10.74 16.2L10.7442 16.2L10.74 15.7ZM14.36 14.54L14.7014 14.9053L14.7045 14.9024L14.36 14.54ZM3.7 7.44V6.94H3.2V7.44H3.7ZM3.7 15.7H3.2V16.2H3.7V15.7ZM10.74 5.64C12.0977 5.64 13.3199 5.86398 14.4134 6.30387L14.7866 5.37613C13.5601 4.88269 12.209 4.64 10.74 4.64V5.64ZM14.4134 6.30387C15.4877 6.73606 16.3591 7.41149 17.0368 8.33568L17.8432 7.74432C17.0543 6.66851 16.0323 5.87727 14.7866 5.37613L14.4134 6.30387ZM17.0387 8.33826C17.7005 9.22866 18.04 10.3009 18.04 11.58H19.04C19.04 10.1124 18.6462 8.82467 17.8413 7.74174L17.0387 8.33826ZM18.04 11.58C18.04 13.4632 17.35 14.8895 15.9794 15.9204L16.5806 16.7196C18.2233 15.4839 19.04 13.7501 19.04 11.58H18.04ZM15.98 15.92C14.5879 16.964 12.8518 17.5 10.74 17.5V18.5C13.0282 18.5 14.9854 17.916 16.58 16.72L15.98 15.92ZM10.74 17.5H0.72V18.5H10.74V17.5ZM1.22 18V5.14H0.22V18H1.22ZM0.72 5.64H10.74V4.64H0.72V5.64ZM10.7442 16.2C12.4151 16.1861 13.7633 15.7819 14.7014 14.9053L14.0186 14.1747C13.3301 14.8181 12.2649 15.1873 10.7358 15.2L10.7442 16.2ZM14.7045 14.9024C15.6246 14.0276 16.08 12.9064 16.08 11.58H15.08C15.08 12.6536 14.7221 13.5058 14.0155 14.1776L14.7045 14.9024ZM16.08 11.58C16.08 10.1007 15.644 8.90678 14.695 8.09504C13.761 7.29609 12.413 6.94 10.74 6.94V7.94C12.2937 7.94 13.3657 8.27391 14.045 8.85496C14.7093 9.42322 15.08 10.2993 15.08 11.58H16.08ZM10.74 6.94H3.7V7.94H10.74V6.94ZM3.2 7.44V15.7H4.2V7.44H3.2ZM3.7 16.2H10.74V15.2H3.7V16.2Z" fill="#4A4A57"/>
<path d="M27.04 15.7H39.94V18H22.66V15.7L35.48 7.44H22.92V5.14H39.88V7.28L27.04 15.7Z" fill="#DA0037"/>
<path d="M27.04 15.7L26.7658 15.2819L25.3657 16.2H27.04V15.7ZM39.94 15.7H40.44V15.2H39.94V15.7ZM39.94 18V18.5H40.44V18H39.94ZM22.66 18H22.16V18.5H22.66V18ZM22.66 15.7L22.3892 15.2797L22.16 15.4274V15.7H22.66ZM35.48 7.44L35.7508 7.86031L37.1792 6.94H35.48V7.44ZM22.92 7.44H22.42V7.94H22.92V7.44ZM22.92 5.14V4.64H22.42V5.14H22.92ZM39.88 5.14H40.38V4.64H39.88V5.14ZM39.88 7.28L40.1542 7.69812L40.38 7.55004V7.28H39.88ZM27.04 16.2H39.94V15.2H27.04V16.2ZM39.44 15.7V18H40.44V15.7H39.44ZM39.94 17.5H22.66V18.5H39.94V17.5ZM23.16 18V15.7H22.16V18H23.16ZM22.9308 16.1203L35.7508 7.86031L35.2092 7.01969L22.3892 15.2797L22.9308 16.1203ZM35.48 6.94H22.92V7.94H35.48V6.94ZM23.42 7.44V5.14H22.42V7.44H23.42ZM22.92 5.64H39.88V4.64H22.92V5.64ZM39.38 5.14V7.28H40.38V5.14H39.38ZM39.6058 6.86188L26.7658 15.2819L27.3142 16.1181L40.1542 7.69812L39.6058 6.86188Z" fill="#DA0037"/>
</svg>
