<svg width="120" height="120" viewBox="0 0 120 120" fill="none" xmlns="http://www.w3.org/2000/svg">
<circle cx="60" cy="60" r="60" fill="black"/>
<path d="M95.3553 95.3553C102.348 88.3627 107.11 79.4536 109.039 69.7545C110.969 60.0555 109.978 50.0021 106.194 40.8658C102.41 31.7295 96.001 23.9206 87.7785 18.4265C79.556 12.9324 69.8891 10 60 10C50.1109 10 40.4439 12.9325 32.2215 18.4265C23.999 23.9206 17.5904 31.7295 13.806 40.8658C10.0216 50.0021 9.03147 60.0555 10.9607 69.7545C12.89 79.4536 17.652 88.3627 24.6447 95.3553L31.1708 88.8292C25.4689 83.1273 21.5859 75.8627 20.0128 67.954C18.4396 60.0452 19.247 51.8476 22.3329 44.3978C25.4187 36.9479 30.6444 30.5804 37.3491 26.1005C44.0537 21.6205 51.9363 19.2294 60 19.2294C68.0637 19.2294 75.9462 21.6205 82.6509 26.1005C89.3556 30.5804 94.5813 36.9479 97.6671 44.3978C100.753 51.8476 101.56 60.0452 99.9872 67.9539C98.4141 75.8627 94.5311 83.1273 88.8292 88.8292L95.3553 95.3553Z" fill="#313134"/>
<path d="M24.6447 95.3553C20.765 91.4757 17.5504 86.9839 15.1297 82.0602L23.4122 77.9882C25.3861 82.003 28.0073 85.6657 31.1708 88.8292L24.6447 95.3553Z" fill="#EEEEEE"/>
<path d="M63.83 71H56.81V56.78C56.15 57 55.67 57.15 55.37 57.23C55.09 57.31 54.67 57.4 54.11 57.5C53.55 57.58 52.81 57.65 51.89 57.71V53.39C53.07 53.27 54.13 53.04 55.07 52.7C55.35 52.58 55.62 52.46 55.88 52.34C56.16 52.22 56.39 52.11 56.57 52.01C56.75 51.91 56.95 51.79 57.17 51.65C57.41 51.51 57.58 51.41 57.68 51.35C57.78 51.27 57.94 51.15 58.16 50.99C58.38 50.81 58.52 50.7 58.58 50.66H63.83V71Z" fill="#EEEEEE"/>
</svg>
