<svg width="120" height="120" viewBox="0 0 120 120" fill="none" xmlns="http://www.w3.org/2000/svg">
<circle cx="60" cy="60" r="60" fill="black"/>
<path d="M95.3553 95.3553C102.348 88.3627 107.11 79.4536 109.039 69.7545C110.969 60.0555 109.978 50.0021 106.194 40.8658C102.41 31.7295 96.001 23.9206 87.7785 18.4265C79.556 12.9324 69.8891 10 60 10C50.1109 10 40.4439 12.9325 32.2215 18.4265C23.999 23.9206 17.5904 31.7295 13.806 40.8658C10.0216 50.0021 9.03147 60.0555 10.9607 69.7545C12.89 79.4536 17.652 88.3627 24.6447 95.3553L31.1708 88.8292C25.4689 83.1273 21.5859 75.8627 20.0128 67.954C18.4396 60.0452 19.247 51.8476 22.3329 44.3978C25.4187 36.9479 30.6444 30.5804 37.3491 26.1005C44.0537 21.6205 51.9363 19.2294 60 19.2294C68.0637 19.2294 75.9462 21.6205 82.6509 26.1005C89.3556 30.5804 94.5813 36.9479 97.6671 44.3978C100.753 51.8476 101.56 60.0452 99.9872 67.9539C98.4141 75.8627 94.5311 83.1273 88.8292 88.8292L95.3553 95.3553Z" fill="white"/>
<path d="M24.6447 95.3553C17.652 88.3627 12.89 79.4536 10.9607 69.7545C9.03147 60.0555 10.0216 50.0021 13.806 40.8658C17.5904 31.7295 23.999 23.9206 32.2215 18.4265C40.444 12.9324 50.1109 10 60 10C69.8891 10 79.5561 12.9325 87.7785 18.4265C96.001 23.9206 102.41 31.7295 106.194 40.8658C109.978 50.0021 110.969 60.0555 109.039 69.7545C107.11 79.4536 102.348 88.3627 95.3553 95.3553L88.8292 88.8292C94.5311 83.1273 98.4141 75.8627 99.9872 67.954C101.56 60.0452 100.753 51.8476 97.6671 44.3978C94.5813 36.9479 89.3556 30.5804 82.6509 26.1005C75.9463 21.6205 68.0637 19.2294 60 19.2294C51.9363 19.2294 44.0538 21.6205 37.3491 26.1005C30.6444 30.5804 25.4187 36.9479 22.3329 44.3978C19.247 51.8476 18.4396 60.0452 20.0128 67.9539C21.5859 75.8627 25.4689 83.1273 31.1708 88.8292L24.6447 95.3553Z" fill="#E21C00"/>
<path d="M51.83 71H44.81V56.78C44.15 57 43.67 57.15 43.37 57.23C43.09 57.31 42.67 57.4 42.11 57.5C41.55 57.58 40.81 57.65 39.89 57.71V53.39C41.07 53.27 42.13 53.04 43.07 52.7C43.35 52.58 43.62 52.46 43.88 52.34C44.16 52.22 44.39 52.11 44.57 52.01C44.75 51.91 44.95 51.79 45.17 51.65C45.41 51.51 45.58 51.41 45.68 51.35C45.78 51.27 45.94 51.15 46.16 50.99C46.38 50.81 46.52 50.7 46.58 50.66H51.83V71ZM79.9873 53C81.8873 54.84 82.8373 57.49 82.8373 60.95C82.8373 64.41 81.7973 67.05 79.7173 68.87C77.6373 70.69 74.6873 71.6 70.8673 71.6C69.6073 71.6 68.4173 71.5 67.2973 71.3C66.1773 71.1 65.0873 70.75 64.0273 70.25C62.9673 69.73 62.0573 69.08 61.2973 68.3C60.5573 67.5 59.9573 66.48 59.4973 65.24C59.0373 64 58.8073 62.59 58.8073 61.01C58.8073 57.51 59.8073 54.84 61.8073 53C63.8273 51.14 67.0373 50.21 71.4373 50.21C75.2373 50.21 78.0873 51.14 79.9873 53ZM75.5173 60.65C75.5173 60.17 75.4873 59.7 75.4273 59.24C75.3873 58.78 75.2673 58.26 75.0673 57.68C74.8873 57.1 74.6373 56.6 74.3173 56.18C74.0173 55.76 73.5673 55.4 72.9673 55.1C72.3873 54.8 71.7073 54.65 70.9273 54.65C70.0073 54.65 69.2073 54.84 68.5273 55.22C67.8673 55.6 67.3773 56.11 67.0573 56.75C66.7373 57.39 66.5073 58.03 66.3673 58.67C66.2273 59.31 66.1573 59.98 66.1573 60.68C66.1573 64.86 67.7073 66.95 70.8073 66.95C72.4873 66.95 73.6873 66.36 74.4073 65.18C75.1473 64 75.5173 62.49 75.5173 60.65Z" fill="#E21C00"/>
</svg>
