<svg width="120" height="120" viewBox="0 0 120 120" fill="none" xmlns="http://www.w3.org/2000/svg">
<circle cx="60" cy="60" r="60" fill="black"/>
<path d="M95.3553 95.3553C102.348 88.3627 107.11 79.4536 109.039 69.7545C110.969 60.0555 109.978 50.0021 106.194 40.8658C102.41 31.7295 96.001 23.9206 87.7785 18.4265C79.556 12.9324 69.8891 10 60 10C50.1109 10 40.4439 12.9325 32.2215 18.4265C23.999 23.9206 17.5904 31.7295 13.806 40.8658C10.0216 50.0021 9.03147 60.0555 10.9607 69.7545C12.89 79.4536 17.652 88.3627 24.6447 95.3553L31.1708 88.8292C25.4689 83.1273 21.5859 75.8627 20.0128 67.954C18.4396 60.0452 19.247 51.8476 22.3329 44.3978C25.4187 36.9479 30.6444 30.5804 37.3491 26.1005C44.0537 21.6205 51.9363 19.2294 60 19.2294C68.0637 19.2294 75.9462 21.6205 82.6509 26.1005C89.3556 30.5804 94.5813 36.9479 97.6671 44.3978C100.753 51.8476 101.56 60.0452 99.9872 67.9539C98.4141 75.8627 94.5311 83.1273 88.8292 88.8292L95.3553 95.3553Z" fill="#313134"/>
<path d="M24.6447 95.3553C18.2573 88.968 13.7196 80.9696 11.5138 72.21C9.30788 63.4504 9.51621 54.2569 12.1166 45.6062C14.717 36.9555 19.6124 29.1709 26.2825 23.0794C32.9526 16.988 41.1483 12.8173 49.9988 11.0104L51.8449 20.0533C44.6281 21.5266 37.9452 24.9275 32.5063 29.8945C27.0674 34.8616 23.0757 41.2092 20.9553 48.2631C18.8349 55.317 18.665 62.8135 20.4637 69.9562C22.2624 77.0989 25.9625 83.6209 31.1708 88.8292L24.6447 95.3553Z" fill="#FFC800"/>
<path d="M71.51 67.31H67.94V71H61.19V67.31H47.87V62.87L59.84 50.69H67.97V62.54H71.51V67.31ZM61.19 62.54V56.09L54.8 62.54H61.19Z" fill="#FFC800"/>
</svg>
