<svg width="120" height="120" viewBox="0 0 120 120" fill="none" xmlns="http://www.w3.org/2000/svg">
<circle cx="60" cy="60" r="60" fill="black"/>
<path d="M95.3553 95.3553C102.348 88.3627 107.11 79.4536 109.039 69.7545C110.969 60.0555 109.978 50.0021 106.194 40.8658C102.41 31.7295 96.001 23.9206 87.7785 18.4265C79.556 12.9324 69.8891 10 60 10C50.1109 10 40.4439 12.9325 32.2215 18.4265C23.999 23.9206 17.5904 31.7295 13.806 40.8658C10.0216 50.0021 9.03147 60.0555 10.9607 69.7545C12.89 79.4536 17.652 88.3627 24.6447 95.3553L31.1708 88.8292C25.4689 83.1273 21.5859 75.8627 20.0128 67.954C18.4396 60.0452 19.247 51.8476 22.3329 44.3978C25.4187 36.9479 30.6444 30.5804 37.3491 26.1005C44.0537 21.6205 51.9363 19.2294 60 19.2294C68.0637 19.2294 75.9462 21.6205 82.6509 26.1005C89.3556 30.5804 94.5813 36.9479 97.6671 44.3978C100.753 51.8476 101.56 60.0452 99.9872 67.9539C98.4141 75.8627 94.5311 83.1273 88.8292 88.8292L95.3553 95.3553Z" fill="#313134"/>
<path d="M24.6447 95.3553C19.8851 90.5957 16.1355 84.9241 13.6207 78.6805C11.1059 72.4368 9.87766 65.7497 10.0096 59.0199C10.1416 52.2901 11.631 45.6562 14.3886 39.516C17.1461 33.3757 21.1151 27.8554 26.0576 23.286C31.0001 18.7167 36.8144 15.1923 43.1518 12.9241C49.4892 10.656 56.2194 9.69081 62.9388 10.0864C69.6582 10.4821 76.2286 12.2304 82.2561 15.2265C88.2836 18.2227 93.644 22.405 98.0162 27.5228L90.9989 33.5177C87.4338 29.3446 83.0628 25.9342 78.1479 23.4911C73.233 21.048 67.8754 19.6225 62.3963 19.2999C56.9172 18.9773 51.4294 19.7643 46.2617 21.6138C41.0941 23.4632 36.3531 26.337 32.323 30.063C28.2928 33.7889 25.0564 38.2902 22.8079 43.2971C20.5593 48.3039 19.3448 53.7133 19.2372 59.2008C19.1296 64.6884 20.1311 70.1411 22.1817 75.2323C24.2323 80.3234 27.2898 84.9482 31.1708 88.8292L24.6447 95.3553Z" fill="#FFC800"/>
<path d="M71.06 55.58L63.44 55.88C62.7 55 61.59 54.56 60.11 54.56C58.63 54.56 57.46 55.02 56.6 55.94C56.1 56.48 55.76 57.04 55.58 57.62C55.42 58.18 55.29 59.01 55.19 60.11C56.97 58.33 59.46 57.44 62.66 57.44C65 57.44 66.92 57.85 68.42 58.67C70.52 59.85 71.57 61.65 71.57 64.07C71.57 66.45 70.55 68.26 68.51 69.5C66.47 70.74 63.79 71.36 60.47 71.36C52.23 71.36 48.11 67.88 48.11 60.92C48.11 58.32 48.75 56.1 50.03 54.26C51.97 51.5 55.52 50.12 60.68 50.12C63.54 50.12 65.89 50.59 67.73 51.53C68.61 51.97 69.33 52.59 69.89 53.39C70.47 54.17 70.86 54.9 71.06 55.58ZM55.85 64.19C55.85 65.97 57.34 66.86 60.32 66.86C61.64 66.86 62.65 66.63 63.35 66.17C64.05 65.69 64.4 65.03 64.4 64.19C64.4 62.47 62.98 61.61 60.14 61.61C58.94 61.61 57.92 61.82 57.08 62.24C56.26 62.66 55.85 63.31 55.85 64.19Z" fill="#FFC800"/>
</svg>
