<svg width="120" height="120" viewBox="0 0 120 120" fill="none" xmlns="http://www.w3.org/2000/svg">
<circle cx="60" cy="60" r="60" fill="black"/>
<path d="M95.3553 95.3553C102.348 88.3627 107.11 79.4536 109.039 69.7545C110.969 60.0555 109.978 50.0021 106.194 40.8658C102.41 31.7295 96.001 23.9206 87.7785 18.4265C79.556 12.9324 69.8891 10 60 10C50.1109 10 40.4439 12.9325 32.2215 18.4265C23.999 23.9206 17.5904 31.7295 13.806 40.8658C10.0216 50.0021 9.03147 60.0555 10.9607 69.7545C12.89 79.4536 17.652 88.3627 24.6447 95.3553L31.1708 88.8292C25.4689 83.1273 21.5859 75.8627 20.0128 67.954C18.4396 60.0452 19.247 51.8476 22.3329 44.3978C25.4187 36.9479 30.6444 30.5804 37.3491 26.1005C44.0537 21.6205 51.9363 19.2294 60 19.2294C68.0637 19.2294 75.9462 21.6205 82.6509 26.1005C89.3556 30.5804 94.5813 36.9479 97.6671 44.3978C100.753 51.8476 101.56 60.0452 99.9872 67.9539C98.4141 75.8627 94.5311 83.1273 88.8292 88.8292L95.3553 95.3553Z" fill="#313134"/>
<path d="M24.6447 95.3553C19.2948 90.0055 15.2288 83.5112 12.7529 76.3619C10.2771 69.2126 9.45597 61.5947 10.3515 54.082C11.247 46.5693 13.8357 39.3578 17.9227 32.9908C22.0096 26.6238 27.4882 21.2672 33.9457 17.3248C40.4032 13.3823 47.6712 10.9567 55.2022 10.2307C62.7331 9.50473 70.3306 10.4973 77.4223 13.1336C84.514 15.7699 90.915 19.9812 96.143 25.4502C101.371 30.9193 105.29 37.5035 107.604 44.7067L98.8167 47.5297C96.9297 41.6561 93.7344 36.2872 89.4714 31.8277C85.2085 27.3682 79.9891 23.9342 74.2064 21.7845C68.4237 19.6349 62.2286 18.8255 56.0878 19.4175C49.947 20.0095 44.0205 21.9874 38.755 25.2021C33.4895 28.4168 29.0222 32.7846 25.6896 37.9764C22.3571 43.1681 20.2462 49.0485 19.516 55.1744C18.7858 61.3003 19.4553 67.5121 21.4741 73.3417C23.493 79.1714 26.8085 84.4668 31.1708 88.8292L24.6447 95.3553Z" fill="#FFC800"/>
<path d="M48.89 50.69H71.3L71.09 53.03C71.01 53.97 70.86 54.72 70.64 55.28C70.44 55.82 70.05 56.44 69.47 57.14C69.19 57.48 68.91 57.79 68.63 58.07C68.37 58.35 67.99 58.71 67.49 59.15C66.99 59.59 66.67 59.87 66.53 59.99C66.39 60.13 66.09 60.4 65.63 60.8C65.19 61.18 64.87 61.46 64.67 61.64C64.49 61.82 64.21 62.09 63.83 62.45C63.45 62.79 63.14 63.08 62.9 63.32C62.68 63.56 62.42 63.85 62.12 64.19C61.84 64.51 61.58 64.82 61.34 65.12C60.66 66 60.16 66.86 59.84 67.7C59.52 68.52 59.19 69.62 58.85 71H50.81C50.93 70.08 51.17 69.03 51.53 67.85C52.25 65.63 53.35 63.83 54.83 62.45C55.75 61.61 56.99 60.69 58.55 59.69C59.97 58.77 60.92 58.14 61.4 57.8C61.96 57.4 62.33 57.04 62.51 56.72C62.71 56.38 62.84 55.98 62.9 55.52H48.89V50.69Z" fill="#FFC800"/>
</svg>
