<svg width="120" height="120" viewBox="0 0 120 120" fill="none" xmlns="http://www.w3.org/2000/svg">
<circle cx="60" cy="60" r="60" fill="black"/>
<path d="M95.3553 95.3553C102.348 88.3627 107.11 79.4536 109.039 69.7545C110.969 60.0555 109.978 50.0021 106.194 40.8658C102.41 31.7295 96.001 23.9206 87.7785 18.4265C79.556 12.9324 69.8891 10 60 10C50.1109 10 40.4439 12.9325 32.2215 18.4265C23.999 23.9206 17.5904 31.7295 13.806 40.8658C10.0216 50.0021 9.03147 60.0555 10.9607 69.7545C12.89 79.4536 17.652 88.3627 24.6447 95.3553L31.1708 88.8292C25.4689 83.1273 21.5859 75.8627 20.0128 67.954C18.4396 60.0452 19.247 51.8476 22.3329 44.3978C25.4187 36.9479 30.6444 30.5804 37.3491 26.1005C44.0537 21.6205 51.9363 19.2294 60 19.2294C68.0637 19.2294 75.9462 21.6205 82.6509 26.1005C89.3556 30.5804 94.5813 36.9479 97.6671 44.3978C100.753 51.8476 101.56 60.0452 99.9872 67.9539C98.4141 75.8627 94.5311 83.1273 88.8292 88.8292L95.3553 95.3553Z" fill="#313134"/>
<path d="M24.6447 95.3553C18.8304 89.5411 14.5399 82.3827 12.153 74.5142C9.7661 66.6457 9.3566 58.31 10.9607 50.2455C12.5649 42.1809 16.1332 34.6364 21.3495 28.2803C26.5658 21.9242 33.2692 16.9527 40.8658 13.806C48.4625 10.6594 56.7179 9.43481 64.9009 10.2408C73.0838 11.0467 80.9417 13.8583 87.7785 18.4265C94.6153 22.9947 100.22 29.1785 104.096 36.4302C107.972 43.6818 110 51.7775 110 60H100.771C100.771 53.2952 99.1171 46.6939 95.9565 40.7809C92.7959 34.8678 88.2258 29.8254 82.6509 26.1005C77.0761 22.3755 70.6687 20.0829 63.9962 19.4257C57.3237 18.7685 50.5922 19.7671 44.3978 22.3329C38.2034 24.8987 32.7373 28.9525 28.4839 34.1354C24.2304 39.3182 21.3208 45.4701 20.0128 52.046C18.7047 58.622 19.0387 65.419 20.9849 71.8351C22.9312 78.2511 26.4298 84.0882 31.1708 88.8292L24.6447 95.3553Z" fill="#FF6309"/>
<path d="M53.12 60.32C52.66 60.22 52.22 60.09 51.8 59.93C51.4 59.77 50.96 59.54 50.48 59.24C50.02 58.94 49.64 58.54 49.34 58.04C49.06 57.54 48.92 56.97 48.92 56.33C48.92 55.07 49.32 54.01 50.12 53.15C50.92 52.27 51.97 51.64 53.27 51.26C54.59 50.88 55.8 50.62 56.9 50.48C58.02 50.34 59.18 50.27 60.38 50.27C61.26 50.27 62.13 50.32 62.99 50.42C63.85 50.5 64.77 50.68 65.75 50.96C66.73 51.22 67.58 51.56 68.3 51.98C69.02 52.38 69.62 52.95 70.1 53.69C70.58 54.41 70.82 55.24 70.82 56.18C70.82 57.14 70.45 58 69.71 58.76C68.97 59.52 67.92 60.06 66.56 60.38C69.78 61.02 71.39 62.59 71.39 65.09C71.39 69.27 67.46 71.36 59.6 71.36C57.48 71.36 55.65 71.18 54.11 70.82C52.57 70.46 51.39 69.97 50.57 69.35C49.75 68.73 49.16 68.07 48.8 67.37C48.44 66.67 48.26 65.91 48.26 65.09C48.26 64.79 48.27 64.52 48.29 64.28C48.33 64.04 48.44 63.71 48.62 63.29C48.8 62.85 49.05 62.47 49.37 62.15C49.69 61.83 50.17 61.5 50.81 61.16C51.45 60.8 52.22 60.52 53.12 60.32ZM63.53 56.54C63.53 55.8 63.2 55.29 62.54 55.01C61.88 54.71 60.91 54.56 59.63 54.56C58.69 54.56 57.87 54.72 57.17 55.04C56.49 55.34 56.15 55.86 56.15 56.6C56.15 57.34 56.45 57.86 57.05 58.16C57.65 58.44 58.59 58.58 59.87 58.58C62.31 58.58 63.53 57.9 63.53 56.54ZM63.98 64.61C63.98 63.91 63.7 63.34 63.14 62.9C62.58 62.46 61.49 62.24 59.87 62.24C57.07 62.24 55.67 63.02 55.67 64.58C55.67 66.16 56.97 66.95 59.57 66.95C62.51 66.95 63.98 66.17 63.98 64.61Z" fill="#FF6309"/>
</svg>
