<svg width="31" height="37" viewBox="0 0 31 37" fill="none" xmlns="http://www.w3.org/2000/svg">
<path d="M18.479 34.4385C18.1269 35.7521 16.854 36.1042 15.4998 36.1042C14.1457 36.1042 12.8728 35.8062 12.5207 34.4927C11.788 31.508 11.3346 28.4615 11.1665 25.3927C11.1665 22.9823 13.3061 22.4 15.554 22.4C17.8019 22.4 19.9415 22.9823 19.9415 25.3927C19.7713 28.4613 19.318 31.5075 18.5873 34.4927L18.479 34.4385Z" fill="#9FA0A1"/>
<path d="M10.896 20.7344C9.96164 19.8196 9.32099 18.6473 9.05573 17.3669C8.79047 16.0865 8.91263 14.7561 9.40662 13.5454C9.90061 12.3347 10.744 11.2987 11.8293 10.5693C12.9146 9.84002 14.1926 9.45052 15.5001 9.45052C16.8077 9.45052 18.0857 9.84002 19.1709 10.5693C20.2562 11.2987 21.0997 12.3347 21.5937 13.5454C22.0876 14.7561 22.2098 16.0865 21.9445 17.3669C21.6793 18.6473 21.0386 19.8196 20.1043 20.7344C20.0588 20.7725 20.0222 20.8202 19.997 20.874C19.9719 20.9278 19.9589 20.9864 19.9589 21.0458C19.9589 21.1052 19.9719 21.1639 19.997 21.2177C20.0222 21.2715 20.0588 21.3192 20.1043 21.3573C20.7255 21.8132 21.2272 22.4125 21.5668 23.1042C21.5923 23.1627 21.6317 23.2141 21.6816 23.2539C21.7314 23.2938 21.7902 23.3209 21.8529 23.3329C21.9156 23.3449 21.9803 23.3414 22.0413 23.3228C22.1023 23.3042 22.1579 23.271 22.2033 23.226C23.6422 21.8698 24.6408 20.1127 25.0695 18.1824C25.4982 16.2521 25.3373 14.2375 24.6078 12.3996C23.8782 10.5618 22.6135 8.98539 20.9775 7.87469C19.3416 6.76399 17.4098 6.17017 15.4324 6.17017C13.4551 6.17017 11.5233 6.76399 9.88732 7.87469C8.25138 8.98539 6.98668 10.5618 6.2571 12.3996C5.52751 14.2375 5.36665 16.2521 5.79537 18.1824C6.22409 20.1127 7.22262 21.8698 8.66159 23.226C8.70692 23.271 8.76251 23.3042 8.82355 23.3228C8.8846 23.3414 8.94926 23.3449 9.01195 23.3329C9.07463 23.3209 9.13345 23.2938 9.1833 23.2539C9.23315 23.2141 9.27254 23.1627 9.29805 23.1042C9.63764 22.4125 10.1394 21.8132 10.7606 21.3573C10.8061 21.3192 10.8427 21.2715 10.8678 21.2177C10.893 21.1639 10.906 21.1052 10.906 21.0458C10.906 20.9864 10.893 20.9278 10.8678 20.874C10.8427 20.8202 10.8061 20.7725 10.7606 20.7344H10.896Z" fill="#9FA0A1"/>
<path d="M15.5 0.895834C12.0205 0.882081 8.63942 2.05043 5.91074 4.20948C3.18206 6.36853 1.26751 9.39027 0.480738 12.7797C-0.306037 16.1691 0.0816094 19.7253 1.58017 22.8656C3.07873 26.0059 5.59936 28.5441 8.72914 30.0646C8.79668 30.0935 8.87064 30.1042 8.9436 30.0955C9.01657 30.0869 9.086 30.0593 9.14494 30.0154C9.20389 29.9716 9.25029 29.913 9.2795 29.8456C9.30872 29.7782 9.31973 29.7043 9.31143 29.6313C9.14893 28.5615 9.01351 27.5052 8.93226 26.5844C8.92968 26.5222 8.91237 26.4616 8.88177 26.4074C8.85116 26.3533 8.80813 26.3072 8.75622 26.2729C6.6028 24.8282 4.97277 22.7275 4.10822 20.2827C3.24367 17.8379 3.1907 15.1795 3.95718 12.7022C4.72366 10.2249 6.26871 8.06091 8.36288 6.53156C10.457 5.00222 12.9886 4.1891 15.5817 4.21296C18.1747 4.23682 20.6909 5.0964 22.7566 6.66402C24.8222 8.23164 26.3272 10.4237 27.0479 12.9147C27.7687 15.4056 27.6668 18.0627 26.7574 20.4911C25.848 22.9196 24.1796 24.99 22 26.3948C22 27.3562 21.7833 28.4802 21.6073 29.6313C21.599 29.7043 21.61 29.7782 21.6392 29.8456C21.6684 29.913 21.7148 29.9716 21.7737 30.0154C21.8327 30.0593 21.9021 30.0869 21.9751 30.0955C22.0481 30.1042 22.122 30.0935 22.1896 30.0646C25.313 28.5472 27.8299 26.0159 29.3296 22.8839C30.8293 19.7519 31.2231 16.204 30.4469 12.8194C29.6706 9.43471 27.7701 6.41307 25.0555 4.24755C22.3409 2.08204 18.9725 0.900531 15.5 0.895834Z" fill="#9FA0A1"/>
<path d="M15.4998 20.6937C17.923 20.6937 19.8873 18.7294 19.8873 16.3062C19.8873 13.8831 17.923 11.9187 15.4998 11.9187C13.0767 11.9187 11.1123 13.8831 11.1123 16.3062C11.1123 18.7294 13.0767 20.6937 15.4998 20.6937Z" fill="#9FA0A1"/>
</svg>
