<svg width="38" height="50" viewBox="0 0 38 50" fill="none" xmlns="http://www.w3.org/2000/svg">
<g clip-path="url(#clip0)">
<path fill-rule="evenodd" clip-rule="evenodd" d="M37.6254 25.1919C37.6254 31.257 34.7053 36.644 30.1853 40.0516C29.3702 42.9806 27.5885 48.4815 25.8037 48.3971C24.1408 48.3185 22.8668 45.2331 22.2876 43.5261C21.1608 43.7349 20.0005 43.8491 18.8127 43.8491C17.0573 43.8491 15.3602 43.6055 13.7482 43.1595C12.7897 45.6389 11.1824 49.7624 9.16165 49.8323C7.03255 49.9059 5.84916 41.688 5.45424 38.3264C2.08339 34.9547 0 30.315 0 25.1919C0 19.6632 2.42681 14.6985 6.27921 11.2821C4.81249 8.46047 2.45279 3.01968 5.30262 1.75407C8.47703 0.344329 9.37285 4.21077 10.2973 8.55703C12.8547 7.26672 15.7467 6.53464 18.8127 6.53464C21.8294 6.53464 24.678 7.24281 27.2051 8.49447C28.7711 5.41432 32.7191 -1.55044 35.4512 0.558106C37.994 2.52059 35.3352 4.10684 31.0793 11.0528C35.0854 14.4743 37.6254 19.5373 37.6254 25.1919Z" fill="white"/>
</g>
<defs>
<clipPath id="clip0">
<rect width="37.6254" height="50" fill="white"/>
</clipPath>
</defs>
</svg>
