<svg width="120" height="120" viewBox="0 0 120 120" fill="none" xmlns="http://www.w3.org/2000/svg">
<circle cx="60" cy="60" r="60" fill="black"/>
<path d="M95.3553 95.3553C102.348 88.3627 107.11 79.4536 109.039 69.7545C110.969 60.0555 109.978 50.0021 106.194 40.8658C102.41 31.7295 96.001 23.9206 87.7785 18.4265C79.556 12.9324 69.8891 10 60 10C50.1109 10 40.4439 12.9325 32.2215 18.4265C23.999 23.9206 17.5904 31.7295 13.806 40.8658C10.0216 50.0021 9.03147 60.0555 10.9607 69.7545C12.89 79.4536 17.652 88.3627 24.6447 95.3553L31.1708 88.8292C25.4689 83.1273 21.5859 75.8627 20.0128 67.954C18.4396 60.0452 19.247 51.8476 22.3329 44.3978C25.4187 36.9479 30.6444 30.5804 37.3491 26.1005C44.0537 21.6205 51.9363 19.2294 60 19.2294C68.0637 19.2294 75.9462 21.6205 82.6509 26.1005C89.3556 30.5804 94.5813 36.9479 97.6671 44.3978C100.753 51.8476 101.56 60.0452 99.9872 67.9539C98.4141 75.8627 94.5311 83.1273 88.8292 88.8292L95.3553 95.3553Z" fill="#313134"/>
<path d="M24.6447 95.3553C18.9402 89.6509 14.7007 82.6508 12.2882 74.9526C9.8756 67.2545 9.36159 59.0868 10.79 51.1469L19.8736 52.7811C18.7088 59.2554 19.1279 65.9154 21.0952 72.1925C23.0624 78.4697 26.5193 84.1777 31.1708 88.8292L24.6447 95.3553Z" fill="#1CE400"/>
<path d="M70.37 71H49.16C49.16 68.48 49.61 66.51 50.51 65.09C51.53 63.43 53.93 61.75 57.71 60.05L60.92 58.58C62.22 57.98 62.87 57.27 62.87 56.45C62.87 55.25 61.77 54.65 59.57 54.65C58.21 54.65 57.28 54.92 56.78 55.46C56.3 56 56.04 56.76 56 57.74C52.2 57.64 50.12 57.59 49.76 57.59C49.76 54.83 50.62 52.93 52.34 51.89C54.06 50.85 56.72 50.33 60.32 50.33C66.8 50.33 70.04 52.29 70.04 56.21C70.04 57.81 69.27 59.21 67.73 60.41C66.75 61.15 65.14 62 62.9 62.96C61.16 63.7 59.77 64.33 58.73 64.85C57.67 65.37 57.06 65.85 56.9 66.29C57.54 66.25 59.01 66.23 61.31 66.23H70.37V71Z" fill="#1CE400"/>
</svg>
