<svg width="120" height="120" viewBox="0 0 120 120" fill="none" xmlns="http://www.w3.org/2000/svg">
<circle cx="60" cy="60" r="60" fill="black"/>
<path d="M95.3553 95.3553C102.348 88.3627 107.11 79.4536 109.039 69.7545C110.969 60.0555 109.978 50.0021 106.194 40.8658C102.41 31.7295 96.001 23.9206 87.7785 18.4265C79.556 12.9324 69.8891 10 60 10C50.1109 10 40.4439 12.9325 32.2215 18.4265C23.999 23.9206 17.5904 31.7295 13.806 40.8658C10.0216 50.0021 9.03147 60.0555 10.9607 69.7545C12.89 79.4536 17.652 88.3627 24.6447 95.3553L31.1708 88.8292C25.4689 83.1273 21.5859 75.8627 20.0128 67.954C18.4396 60.0452 19.247 51.8476 22.3329 44.3978C25.4187 36.9479 30.6444 30.5804 37.3491 26.1005C44.0537 21.6205 51.9363 19.2294 60 19.2294C68.0637 19.2294 75.9462 21.6205 82.6509 26.1005C89.3556 30.5804 94.5813 36.9479 97.6671 44.3978C100.753 51.8476 101.56 60.0452 99.9872 67.9539C98.4141 75.8627 94.5311 83.1273 88.8292 88.8292L95.3553 95.3553Z" fill="#313134"/>
<path d="M24.6447 95.3553C20.0017 90.7124 16.3188 85.2004 13.806 79.1342C11.2933 73.0679 10 66.5661 10 60C10 53.4339 11.2933 46.9321 13.806 40.8658C16.3188 34.7995 20.0017 29.2876 24.6447 24.6447L31.1708 31.1708C27.3849 34.9567 24.3818 39.4512 22.3329 44.3977C20.2839 49.3443 19.2294 54.6459 19.2294 60C19.2294 65.3541 20.2839 70.6557 22.3329 75.6022C24.3818 80.5488 27.3849 85.0433 31.1708 88.8292L24.6447 95.3553Z" fill="#1CE400"/>
<path d="M55.34 62.51V58.64H59.42C61.74 58.64 62.9 57.96 62.9 56.6C62.9 55.24 61.81 54.56 59.63 54.56C57.01 54.56 55.44 55.18 54.92 56.42L48.05 56.09C48.33 54.85 48.77 53.87 49.37 53.15C51.03 51.13 54.38 50.12 59.42 50.12C60.4 50.12 61.26 50.14 62 50.18C62.76 50.22 63.6 50.3 64.52 50.42C65.46 50.54 66.26 50.74 66.92 51.02C67.58 51.28 68.2 51.62 68.78 52.04C69.38 52.44 69.83 52.97 70.13 53.63C70.43 54.29 70.58 55.05 70.58 55.91C70.58 58.19 68.97 59.62 65.75 60.2C69.31 60.66 71.09 62.2 71.09 64.82C71.09 67.08 70.08 68.76 68.06 69.86C66.08 70.94 63.09 71.48 59.09 71.48C56.47 71.48 54.38 71.3 52.82 70.94C51.26 70.58 50 69.96 49.04 69.08C47.84 68 47.11 66.6 46.85 64.88L53.6 64.58C54.12 66.14 55.92 66.92 59 66.92C60.66 66.92 61.83 66.68 62.51 66.2C63.07 65.82 63.35 65.27 63.35 64.55C63.35 63.19 62.23 62.51 59.99 62.51H55.34Z" fill="#1CE400"/>
</svg>
