<svg width="120" height="120" viewBox="0 0 120 120" fill="none" xmlns="http://www.w3.org/2000/svg">
<circle cx="60" cy="60" r="60" fill="black"/>
<path d="M95.3553 95.3553C102.348 88.3627 107.11 79.4536 109.039 69.7545C110.969 60.0555 109.978 50.0021 106.194 40.8658C102.41 31.7295 96.001 23.9206 87.7785 18.4265C79.556 12.9324 69.8891 10 60 10C50.1109 10 40.4439 12.9325 32.2215 18.4265C23.999 23.9206 17.5904 31.7295 13.806 40.8658C10.0216 50.0021 9.03147 60.0555 10.9607 69.7545C12.89 79.4536 17.652 88.3627 24.6447 95.3553L31.1708 88.8292C25.4689 83.1273 21.5859 75.8627 20.0128 67.954C18.4396 60.0452 19.247 51.8476 22.3329 44.3978C25.4187 36.9479 30.6444 30.5804 37.3491 26.1005C44.0537 21.6205 51.9363 19.2294 60 19.2294C68.0637 19.2294 75.9462 21.6205 82.6509 26.1005C89.3556 30.5804 94.5813 36.9479 97.6671 44.3978C100.753 51.8476 101.56 60.0452 99.9872 67.9539C98.4141 75.8627 94.5311 83.1273 88.8292 88.8292L95.3553 95.3553Z" fill="#313134"/>
<path d="M24.6447 95.3553C17.652 88.3627 12.89 79.4536 10.9607 69.7545C9.03147 60.0555 10.0216 50.0021 13.806 40.8658C17.5904 31.7295 23.999 23.9206 32.2215 18.4265C40.444 12.9324 50.1109 10 60 10V19.2294C51.9363 19.2294 44.0538 21.6205 37.3491 26.1005C30.6444 30.5804 25.4187 36.9479 22.3329 44.3978C19.247 51.8476 18.4396 60.0452 20.0128 67.9539C21.5859 75.8627 25.4689 83.1273 31.1708 88.8292L24.6447 95.3553Z" fill="#FFC800"/>
<path d="M50.15 50.66H70.37L69.95 55.31H55.7L55.43 58.37C57.67 57.53 59.86 57.11 62 57.11C65.78 57.11 68.47 58.1 70.07 60.08C70.91 61.1 71.33 62.3 71.33 63.68C71.33 64.92 70.99 66.09 70.31 67.19C69.93 67.81 69.47 68.36 68.93 68.84C68.39 69.32 67.79 69.72 67.13 70.04C66.49 70.34 65.83 70.59 65.15 70.79C64.49 70.99 63.77 71.14 62.99 71.24C62.21 71.34 61.5 71.4 60.86 71.42C60.22 71.46 59.51 71.48 58.73 71.48C58.27 71.48 57.79 71.46 57.29 71.42C56.81 71.38 56.14 71.3 55.28 71.18C54.42 71.08 53.62 70.89 52.88 70.61C52.14 70.31 51.4 69.95 50.66 69.53C49.94 69.09 49.34 68.5 48.86 67.76C48.4 67.02 48.12 66.18 48.02 65.24L55.22 65C55.36 65.68 55.89 66.18 56.81 66.5C57.75 66.82 58.66 66.98 59.54 66.98C60.66 66.98 61.67 66.74 62.57 66.26C63.49 65.78 63.95 65.02 63.95 63.98C63.95 63.28 63.67 62.71 63.11 62.27C62.55 61.83 61.96 61.55 61.34 61.43C60.72 61.31 60.07 61.25 59.39 61.25C57.69 61.25 56.37 61.64 55.43 62.42C51.57 62.32 49.47 62.27 49.13 62.27L50.15 50.66Z" fill="#FFC800"/>
</svg>
