<svg width="120" height="120" viewBox="0 0 120 120" fill="none" xmlns="http://www.w3.org/2000/svg">
<circle cx="60" cy="60" r="60" fill="black"/>
<path d="M95.3553 95.3553C102.348 88.3627 107.11 79.4536 109.039 69.7545C110.969 60.0555 109.978 50.0021 106.194 40.8658C102.41 31.7295 96.001 23.9206 87.7785 18.4265C79.556 12.9324 69.8891 10 60 10C50.1109 10 40.4439 12.9325 32.2215 18.4265C23.999 23.9206 17.5904 31.7295 13.806 40.8658C10.0216 50.0021 9.03147 60.0555 10.9607 69.7545C12.89 79.4536 17.652 88.3627 24.6447 95.3553L31.1708 88.8292C25.4689 83.1273 21.5859 75.8627 20.0128 67.954C18.4396 60.0452 19.247 51.8476 22.3329 44.3978C25.4187 36.9479 30.6444 30.5804 37.3491 26.1005C44.0537 21.6205 51.9363 19.2294 60 19.2294C68.0637 19.2294 75.9462 21.6205 82.6509 26.1005C89.3556 30.5804 94.5813 36.9479 97.6671 44.3978C100.753 51.8476 101.56 60.0452 99.9872 67.9539C98.4141 75.8627 94.5311 83.1273 88.8292 88.8292L95.3553 95.3553Z" fill="#313134"/>
<path d="M24.6447 95.3553C18.3174 89.0281 13.8041 81.1189 11.5755 72.4528C9.34698 63.7867 9.48486 54.6813 11.9748 46.0867C14.4647 37.492 19.2155 29.7231 25.7314 23.5903C32.2473 17.4576 40.2896 13.1858 49.0192 11.2207C57.7488 9.25555 66.8458 9.66907 75.3611 12.4181C83.8764 15.1671 91.498 20.151 97.4306 26.8496C103.363 33.5482 107.39 41.7161 109.089 50.5012C110.789 59.2863 110.101 68.3666 107.095 76.7948L98.4018 73.6947C100.853 66.8223 101.414 59.4181 100.028 52.2546C98.642 45.0911 95.3589 38.4309 90.5214 32.9687C85.6838 27.5066 79.4691 23.4427 72.5256 21.2011C65.5821 18.9595 58.1643 18.6223 51.0461 20.2247C43.9279 21.8271 37.3701 25.3104 32.057 30.3111C26.7438 35.3118 22.87 41.6467 20.8397 48.6549C18.8093 55.6631 18.6969 63.0877 20.5141 70.1541C22.3313 77.2206 26.0115 83.6699 31.1708 88.8292L24.6447 95.3553Z" fill="#FF6309"/>
<path d="M64.01 61.79C62.39 63.35 60.05 64.13 56.99 64.13C56.27 64.13 55.55 64.09 54.83 64.01C54.13 63.91 53.34 63.72 52.46 63.44C51.6 63.16 50.85 62.79 50.21 62.33C49.57 61.87 49.03 61.23 48.59 60.41C48.15 59.59 47.93 58.64 47.93 57.56C47.93 56.86 48.02 56.2 48.2 55.58C48.4 54.94 48.76 54.29 49.28 53.63C49.82 52.97 50.51 52.41 51.35 51.95C52.21 51.47 53.35 51.08 54.77 50.78C56.21 50.46 57.86 50.3 59.72 50.3C63.78 50.3 66.73 51.2 68.57 53C70.41 54.78 71.33 57.22 71.33 60.32C71.33 63.78 70.31 66.5 68.27 68.48C66.25 70.46 63.11 71.45 58.85 71.45C52.35 71.45 48.69 69.59 47.87 65.87L55.76 65.69C56.16 66.15 56.57 66.49 56.99 66.71C57.43 66.91 58.02 67.01 58.76 67.01C59.74 67.01 60.59 66.85 61.31 66.53C62.03 66.19 62.57 65.76 62.93 65.24C63.31 64.7 63.58 64.16 63.74 63.62C63.92 63.08 64.01 62.53 64.01 61.97V61.79ZM63.77 57.29C63.77 56.73 63.64 56.27 63.38 55.91C63.12 55.55 62.74 55.29 62.24 55.13C61.74 54.97 61.25 54.87 60.77 54.83C60.31 54.77 59.74 54.74 59.06 54.74C58.74 54.74 58.4 54.77 58.04 54.83C57.68 54.87 57.25 54.97 56.75 55.13C56.27 55.27 55.87 55.53 55.55 55.91C55.25 56.27 55.1 56.71 55.1 57.23C55.1 58.91 56.51 59.75 59.33 59.75C62.29 59.75 63.77 58.93 63.77 57.29Z" fill="#FF6309"/>
</svg>
